# This file uses centimeters as units for non-parametric coordinates.

mtllib Ring.mtl
g default
v -0.706742 1.533424 0.100000
v -0.978148 1.591113 0.100000
v -1.000000 1.383201 0.100000
v -0.722531 1.383201 0.100000
v 0.223274 0.696033 -0.100000
v 0.309017 0.432144 -0.100000
v 0.104528 0.388679 -0.100000
v 0.075525 0.664628 -0.100000
v 0.584540 1.807894 -0.100000
v 0.584540 1.807894 0.100000
v 0.483468 1.920146 0.100000
v 0.483468 1.920146 -0.100000
v 0.809018 1.970987 -0.100000
v 0.669131 2.126346 -0.100000
v 0.669131 2.126346 0.100000
v 0.809018 1.970987 0.100000
v 0.706742 1.232978 -0.100000
v 0.978148 1.175289 -0.100000
v 0.913546 0.976464 -0.100000
v 0.660065 1.089321 -0.100000
v 0.075525 2.101774 0.100000
v 0.104529 2.377724 0.100000
v -0.104528 2.377724 0.100000
v -0.075525 2.101774 0.100000
v 0.361265 0.757471 -0.100000
v 0.500000 0.517175 -0.100000
v -0.483468 0.846256 -0.100000
v -0.483468 0.846256 0.100000
v -0.361265 0.757471 0.100000
v -0.361265 0.757471 -0.100000
v -0.978148 1.175289 0.100000
v -0.706742 1.232978 0.100000
v -0.669131 0.640056 -0.100000
v -0.500000 0.517175 -0.100000
v -0.500000 0.517175 0.100000
v -0.669131 0.640056 0.100000
v 0.483467 0.846256 -0.100000
v 0.669131 0.640056 -0.100000
v 0.660065 1.677081 -0.100000
v 0.660065 1.677081 0.100000
v 0.809017 0.795416 -0.100000
v 0.584540 0.958508 -0.100000
v 0.584540 0.958508 -0.100000
v 0.223275 2.070369 0.100000
v 0.309017 2.334258 0.100000
v 0.483467 0.846256 -0.100000
v 0.913546 1.789938 -0.100000
v 0.913546 1.789938 0.100000
v -0.223274 0.696033 0.100000
v -0.223274 0.696033 -0.100000
v -0.913546 0.976464 0.100000
v -0.660065 1.089321 0.100000
v 0.706742 1.533424 -0.100000
v 0.706742 1.533424 0.100000
v -0.309017 0.432144 -0.100000
v -0.309017 0.432144 0.100000
v 0.361266 2.008931 0.100000
v 0.500001 2.249227 0.100000
v -0.075525 0.664628 0.100000
v -0.075525 0.664628 -0.100000
v 0.978149 1.591113 -0.100000
v 0.978149 1.591113 0.100000
v -0.809017 0.795416 0.100000
v -0.584540 0.958508 0.100000
v 0.722531 1.383201 -0.100000
v 0.722531 1.383201 0.100000
v -0.104529 0.388679 -0.100000
v -0.104529 0.388679 0.100000
v 0.075525 0.664628 0.100000
v 0.706742 1.232978 0.100000
v 1.000000 1.383201 -0.100000
v 1.000000 1.383201 0.100000
v 0.223274 0.696033 0.100000
v 0.660065 1.089321 0.100000
v 0.104528 0.388679 0.100000
v 0.361265 0.757471 0.100000
v 0.584540 0.958508 0.100000
v 0.978148 1.175289 0.100000
v 0.309017 0.432144 0.100000
v 0.913546 0.976464 0.100000
v 0.500000 0.517175 0.100000
v 0.809017 0.795416 0.100000
v 0.669131 0.640056 0.100000
v 0.483467 0.846256 0.100000
v 0.483467 0.846256 0.100000
v 0.584540 0.958508 0.100000
v -0.309017 2.334258 0.100000
v -0.223274 2.070369 0.100000
v -0.584540 0.958508 -0.100000
v -0.809017 0.795416 -0.100000
v -0.660065 1.677081 0.100000
v -0.913546 1.789938 0.100000
v -0.500000 2.249227 0.100000
v -0.361265 2.008931 0.100000
v 0.361266 2.008931 -0.100000
v -0.584540 1.807894 0.100000
v -0.809017 1.970987 0.100000
v 0.500001 2.249227 -0.100000
v -0.669131 2.126346 0.100000
v -0.483468 1.920146 0.100000
v -0.660065 1.089321 -0.100000
v -0.913546 0.976464 -0.100000
v 0.223275 2.070369 -0.100000
v -0.706742 1.232978 -0.100000
v 0.309017 2.334258 -0.100000
v 0.075525 2.101774 -0.100000
v -0.978148 1.175289 -0.100000
v -0.722531 1.383201 -0.100000
v 0.104529 2.377724 -0.100000
v -0.075525 2.101774 -0.100000
v -0.706742 1.533424 -0.100000
v -1.000000 1.383201 -0.100000
v -0.223274 2.070369 -0.100000
v -0.660065 1.677081 -0.100000
v -0.104528 2.377724 -0.100000
v -0.361265 2.008931 -0.100000
v -0.584540 1.807894 -0.100000
v -0.483468 1.920146 -0.100000
v -0.978148 1.591113 -0.100000
v -0.309017 2.334258 -0.100000
v -0.913546 1.789938 -0.100000
v -0.500000 2.249227 -0.100000
v -0.809017 1.970987 -0.100000
v -0.669131 2.126346 -0.100000
vt 0.380950 0.869055
vt 0.347164 0.876236
vt 0.343750 0.843750
vt 0.378291 0.843750
vt 0.537610 0.272002
vt 0.548284 0.304853
vt 0.516333 0.311644
vt 0.512722 0.277293
vt 0.391667 0.312500
vt 0.391667 0.687500
vt 0.400000 0.687500
vt 0.400000 0.312500
vt 0.391667 0.312500
vt 0.400000 0.312500
vt 0.400000 0.687500
vt 0.391667 0.687500
vt 0.619050 0.181555
vt 0.652836 0.188736
vt 0.642742 0.219803
vt 0.611187 0.205754
vt 0.512722 0.964793
vt 0.516333 0.999144
vt 0.483667 0.999144
vt 0.487278 0.964793
vt 0.560855 0.261653
vt 0.578125 0.291566
vt 0.525000 0.312500
vt 0.525000 0.687500
vt 0.533333 0.687500
vt 0.533333 0.312500
vt 0.347164 0.811264
vt 0.380950 0.818445
vt 0.525000 0.312500
vt 0.533333 0.312500
vt 0.533333 0.687500
vt 0.525000 0.687500
vt 0.581439 0.246698
vt 0.604552 0.272366
vt 0.383333 0.312500
vt 0.383333 0.687500
vt 0.626409 0.248091
vt 0.598465 0.227789
vt 0.598465 0.227789
vt 0.537610 0.959502
vt 0.548284 0.992353
vt 0.581439 0.246698
vt 0.383333 0.312500
vt 0.383333 0.687500
vt 0.541667 0.687500
vt 0.541667 0.312500
vt 0.357258 0.780197
vt 0.388813 0.794246
vt 0.375000 0.312500
vt 0.375000 0.687500
vt 0.541667 0.312500
vt 0.541667 0.687500
vt 0.560855 0.949153
vt 0.578125 0.979066
vt 0.550000 0.687500
vt 0.550000 0.312500
vt 0.375000 0.312500
vt 0.375000 0.687500
vt 0.373591 0.751908
vt 0.401535 0.772211
vt 0.616666 0.312500
vt 0.616666 0.687500
vt 0.625000 0.687500
vt 0.625000 0.312500
vt 0.550000 0.312500
vt 0.550000 0.687500
vt 0.558333 0.687500
vt 0.558333 0.312500
vt 0.581439 0.934198
vt 0.604552 0.959866
vt 0.608333 0.312500
vt 0.608333 0.687500
vt 0.616666 0.312500
vt 0.625000 0.312500
vt 0.625000 0.687500
vt 0.616666 0.687500
vt 0.566666 0.687500
vt 0.566666 0.312500
vt 0.395448 0.727634
vt 0.418561 0.753302
vt 0.600000 0.312500
vt 0.600000 0.687500
vt 0.558333 0.312500
vt 0.558333 0.687500
vt 0.575000 0.687500
vt 0.575000 0.312500
vt 0.591666 0.312500
vt 0.591666 0.687500
vt 0.598465 0.915289
vt 0.626409 0.935591
vt 0.608333 0.312500
vt 0.608333 0.687500
vt 0.566666 0.312500
vt 0.566666 0.687500
vt 0.421875 0.708433
vt 0.439145 0.738347
vt 0.600000 0.312500
vt 0.600000 0.687500
vt 0.575000 0.312500
vt 0.575000 0.687500
vt 0.611187 0.893254
vt 0.642742 0.907303
vt 0.591666 0.312500
vt 0.591666 0.687500
vt 0.583333 0.312500
vt 0.583333 0.687500
vt 0.451716 0.695147
vt 0.462390 0.727997
vt 0.619050 0.869055
vt 0.652836 0.876236
vt 0.483667 0.688356
vt 0.487278 0.722707
vt 0.621709 0.843750
vt 0.656250 0.843750
vt 0.516333 0.688356
vt 0.512722 0.722707
vt 0.619050 0.818445
vt 0.652836 0.811264
vt 0.548284 0.695147
vt 0.537610 0.727997
vt 0.611187 0.794246
vt 0.642742 0.780197
vt 0.578125 0.708433
vt 0.560855 0.738347
vt 0.604552 0.727634
vt 0.581440 0.753302
vt 0.583333 0.687500
vt 0.583333 0.687500
vt 0.583333 0.312500
vt 0.583333 0.312500
vt 0.591666 0.687500
vt 0.591666 0.312500
vt 0.626409 0.751908
vt 0.598465 0.772211
vt 0.598465 0.772211
vt 0.581440 0.753302
vt 0.621709 0.156250
vt 0.656250 0.156250
vt 0.451716 0.992353
vt 0.462390 0.959502
vt 0.516667 0.312500
vt 0.516667 0.687500
vt 0.516667 0.312500
vt 0.516667 0.687500
vt 0.388813 0.893254
vt 0.357258 0.907303
vt 0.483667 0.311644
vt 0.487278 0.277293
vt 0.421875 0.979066
vt 0.439145 0.949153
vt 0.408333 0.687500
vt 0.408333 0.312500
vt 0.401535 0.915289
vt 0.373591 0.935591
vt 0.619050 0.130945
vt 0.652836 0.123764
vt 0.408333 0.312500
vt 0.408333 0.687500
vt 0.395448 0.959866
vt 0.418561 0.934198
vt 0.508333 0.312500
vt 0.508333 0.687500
vt 0.451716 0.304853
vt 0.462390 0.272002
vt 0.508333 0.312500
vt 0.508333 0.687500
vt 0.416667 0.687500
vt 0.416667 0.312500
vt 0.611187 0.106746
vt 0.642742 0.092697
vt 0.500000 0.312500
vt 0.500000 0.687500
vt 0.416667 0.312500
vt 0.416667 0.687500
vt 0.421875 0.291567
vt 0.439145 0.261653
vt 0.425000 0.687500
vt 0.425000 0.312500
vt 0.500000 0.312500
vt 0.500000 0.687500
vt 0.598465 0.084711
vt 0.626409 0.064408
vt 0.491667 0.312500
vt 0.491667 0.687500
vt 0.425000 0.312500
vt 0.425000 0.687500
vt 0.433333 0.687500
vt 0.433333 0.312500
vt 0.395448 0.272366
vt 0.418561 0.246698
vt 0.483333 0.312500
vt 0.483333 0.687500
vt 0.491667 0.312500
vt 0.491667 0.687500
vt 0.441667 0.687500
vt 0.441667 0.312500
vt 0.581440 0.065802
vt 0.604552 0.040134
vt 0.475000 0.312500
vt 0.475000 0.687500
vt 0.433333 0.312500
vt 0.433333 0.687500
vt 0.450000 0.687500
vt 0.450000 0.312500
vt 0.466667 0.312500
vt 0.466667 0.687500
vt 0.373591 0.248091
vt 0.401535 0.227789
vt 0.458333 0.687500
vt 0.458333 0.312500
vt 0.483333 0.312500
vt 0.483333 0.687500
vt 0.441667 0.312500
vt 0.441667 0.687500
vt 0.560855 0.050847
vt 0.578125 0.020933
vt 0.475000 0.312500
vt 0.475000 0.687500
vt 0.450000 0.312500
vt 0.450000 0.687500
vt 0.357258 0.219803
vt 0.388813 0.205754
vt 0.466667 0.312500
vt 0.466667 0.687500
vt 0.458333 0.312500
vt 0.458333 0.687500
vt 0.537610 0.040497
vt 0.548284 0.007647
vt 0.347164 0.188736
vt 0.380950 0.181555
vt 0.512722 0.035207
vt 0.516333 0.000856
vt 0.343750 0.156250
vt 0.378291 0.156250
vt 0.487278 0.035207
vt 0.483667 0.000856
vt 0.347164 0.123764
vt 0.380950 0.130945
vt 0.462390 0.040497
vt 0.451716 0.007647
vt 0.357258 0.092697
vt 0.388813 0.106746
vt 0.439145 0.050847
vt 0.421875 0.020933
vt 0.373591 0.064408
vt 0.401535 0.084711
vt 0.418561 0.065802
vt 0.395448 0.040134
vn 0.000000 0.000000 1.000000
vn 0.000000 0.000000 1.000000
vn 0.000000 0.000000 1.000000
vn 0.000000 0.000000 1.000000
vn 0.000000 -0.000000 -1.000000
vn 0.000000 -0.000000 -1.000000
vn 0.000000 -0.000000 -1.000000
vn 0.000000 -0.000000 -1.000000
vn -0.809017 -0.587785 0.000000
vn -0.809017 -0.587785 0.000000
vn -0.669131 -0.743145 0.000000
vn -0.669131 -0.743145 0.000000
vn 0.809017 0.587785 0.000000
vn 0.669131 0.743145 0.000000
vn 0.669131 0.743145 0.000000
vn 0.809017 0.587785 0.000000
vn 0.000000 -0.000000 -1.000000
vn 0.000000 -0.000000 -1.000000
vn 0.000000 -0.000000 -1.000000
vn 0.000000 -0.000000 -1.000000
vn 0.000000 0.000000 1.000000
vn 0.000000 0.000000 1.000000
vn 0.000000 -0.000000 1.000000
vn 0.000000 -0.000000 1.000000
vn 0.000000 -0.000000 -1.000000
vn 0.000000 -0.000000 -1.000000
vn 0.669131 0.743145 0.000000
vn 0.669131 0.743145 0.000000
vn 0.500000 0.866026 0.000000
vn 0.500000 0.866026 0.000000
vn 0.000000 0.000000 1.000000
vn 0.000000 0.000000 1.000000
vn -0.669131 -0.743145 0.000000
vn -0.500000 -0.866025 0.000000
vn -0.500000 -0.866025 0.000000
vn -0.669131 -0.743145 0.000000
vn 0.000000 -0.000000 -1.000000
vn 0.000000 -0.000000 -1.000000
vn -0.913546 -0.406736 0.000000
vn -0.913546 -0.406736 0.000000
vn 0.000000 -0.000000 -1.000000
vn 0.000000 -0.000000 -1.000000
vn 0.000000 -0.000000 -1.000000
vn 0.000000 0.000000 1.000000
vn 0.000000 0.000000 1.000000
vn 0.000000 -0.000000 -1.000000
vn 0.913545 0.406737 0.000000
vn 0.913545 0.406737 0.000000
vn 0.309017 0.951057 0.000000
vn 0.309017 0.951057 0.000000
vn 0.000000 0.000000 1.000000
vn 0.000000 0.000000 1.000000
vn -0.978148 -0.207909 0.000000
vn -0.978148 -0.207909 0.000000
vn -0.309017 -0.951057 0.000000
vn -0.309017 -0.951057 0.000000
vn 0.000000 0.000000 1.000000
vn 0.000000 0.000000 1.000000
vn 0.104528 0.994522 0.000000
vn 0.104528 0.994522 0.000000
vn 0.978148 0.207909 0.000000
vn 0.978148 0.207909 0.000000
vn 0.000000 0.000000 1.000000
vn 0.000000 0.000000 1.000000
vn -1.000000 0.000002 0.000000
vn -1.000000 0.000002 0.000000
vn -0.104528 -0.994522 0.000000
vn -0.104528 -0.994522 0.000000
vn -0.104528 0.994522 0.000000
vn -0.104528 0.994522 0.000000
vn 0.000000 0.000000 1.000000
vn 0.000000 0.000000 1.000000
vn -0.978148 0.207911 0.000000
vn -0.978148 0.207911 0.000000
vn 1.000000 -0.000002 0.000000
vn 1.000000 -0.000002 0.000000
vn -0.309017 0.951056 0.000000
vn -0.309017 0.951056 0.000000
vn 0.000000 0.000000 1.000000
vn 0.000000 0.000000 1.000000
vn -0.913545 0.406736 0.000000
vn -0.913545 0.406736 0.000000
vn 0.104529 -0.994522 0.000000
vn 0.104529 -0.994522 0.000000
vn -0.500000 0.866025 0.000000
vn -0.500000 0.866025 0.000000
vn -0.809017 0.587785 0.000000
vn -0.809017 0.587785 0.000000
vn 0.000000 0.000000 1.000000
vn 0.000000 0.000000 1.000000
vn 0.978148 -0.207911 0.000000
vn 0.978148 -0.207911 0.000000
vn 0.309017 -0.951056 0.000000
vn 0.309017 -0.951056 0.000000
vn 0.000000 0.000000 1.000000
vn 0.000000 0.000000 1.000000
vn 0.913545 -0.406736 0.000000
vn 0.913545 -0.406736 0.000000
vn 0.500000 -0.866025 0.000000
vn 0.500000 -0.866025 0.000000
vn 0.000000 0.000000 1.000000
vn 0.000000 0.000000 1.000000
vn 0.809017 -0.587785 0.000000
vn 0.809017 -0.587785 0.000000
vn 0.669131 -0.743145 0.000000
vn 0.669131 -0.743145 0.000000
vn 0.000000 0.000000 1.000000
vn 0.000000 0.000000 1.000000
vn 0.000000 0.000000 1.000000
vn 0.000000 0.000000 1.000000
vn 0.000000 -0.000000 1.000000
vn 0.000000 -0.000000 1.000000
vn 0.000000 0.000000 1.000000
vn 0.000000 0.000000 1.000000
vn 0.000000 -0.000000 1.000000
vn 0.000000 -0.000000 1.000000
vn 0.000000 0.000000 1.000000
vn 0.000000 0.000000 1.000000
vn 0.000000 0.000000 1.000000
vn 0.000000 -0.000000 1.000000
vn 0.000000 0.000000 1.000000
vn 0.000000 0.000000 1.000000
vn 0.000000 -0.000000 1.000000
vn 0.000000 -0.000000 1.000000
vn 0.000000 0.000000 1.000000
vn 0.000000 0.000000 1.000000
vn -0.587786 0.809017 0.000000
vn -0.669131 0.743145 0.000000
vn -0.669131 0.743145 0.000000
vn -0.587786 0.809017 0.000000
vn -0.743145 0.669131 0.000000
vn -0.743145 0.669131 0.000000
vn 0.000000 0.000000 1.000000
vn 0.000000 0.000000 1.000000
vn 0.000000 0.000000 1.000000
vn 0.000000 0.000000 1.000000
vn 0.000000 -0.000000 -1.000000
vn 0.000000 -0.000000 -1.000000
vn 0.000000 -0.000000 1.000000
vn 0.000000 -0.000000 1.000000
vn 0.809017 0.587785 0.000000
vn 0.809017 0.587785 0.000000
vn -0.809017 -0.587785 0.000000
vn -0.809017 -0.587785 0.000000
vn 0.000000 0.000000 1.000000
vn 0.000000 0.000000 1.000000
vn 0.000000 -0.000000 -1.000000
vn 0.000000 -0.000000 -1.000000
vn 0.000000 -0.000000 1.000000
vn 0.000000 -0.000000 1.000000
vn -0.500000 -0.866025 0.000000
vn -0.500000 -0.866025 0.000000
vn 0.000000 0.000000 1.000000
vn 0.000000 0.000000 1.000000
vn 0.000000 -0.000000 -1.000000
vn 0.000000 -0.000000 -1.000000
vn 0.500000 0.866025 0.000000
vn 0.500000 0.866025 0.000000
vn 0.000000 0.000000 1.000000
vn 0.000000 0.000000 1.000000
vn 0.913545 0.406737 0.000000
vn 0.913545 0.406737 0.000000
vn 0.000000 0.000000 -1.000000
vn 0.000000 0.000000 -1.000000
vn -0.913545 -0.406737 0.000000
vn -0.913545 -0.406737 0.000000
vn -0.309017 -0.951057 0.000000
vn -0.309017 -0.951057 0.000000
vn 0.000000 -0.000000 -1.000000
vn 0.000000 -0.000000 -1.000000
vn 0.978148 0.207912 0.000000
vn 0.978148 0.207912 0.000000
vn 0.309017 0.951056 0.000000
vn 0.309017 0.951056 0.000000
vn 0.000000 -0.000000 -1.000000
vn 0.000000 -0.000000 -1.000000
vn -0.104528 -0.994522 0.000000
vn -0.104528 -0.994522 0.000000
vn -0.978148 -0.207912 0.000000
vn -0.978148 -0.207912 0.000000
vn 0.000000 -0.000000 -1.000000
vn 0.000000 -0.000000 -1.000000
vn 1.000000 0.000000 0.000000
vn 1.000000 0.000000 0.000000
vn 0.104529 0.994522 0.000000
vn 0.104529 0.994522 0.000000
vn 0.104528 -0.994522 0.000000
vn 0.104528 -0.994522 0.000000
vn 0.000000 -0.000000 -1.000000
vn 0.000000 -0.000000 -1.000000
vn 0.978148 -0.207912 0.000000
vn 0.978148 -0.207912 0.000000
vn -1.000000 -0.000000 0.000000
vn -1.000000 -0.000000 0.000000
vn 0.309017 -0.951057 0.000000
vn 0.309017 -0.951057 0.000000
vn 0.000000 -0.000000 -1.000000
vn 0.000000 -0.000000 -1.000000
vn 0.913545 -0.406737 0.000000
vn 0.913545 -0.406737 0.000000
vn -0.104528 0.994522 0.000000
vn -0.104528 0.994522 0.000000
vn 0.500000 -0.866025 0.000000
vn 0.500000 -0.866025 0.000000
vn 0.809017 -0.587785 0.000000
vn 0.809017 -0.587785 0.000000
vn 0.000000 -0.000000 -1.000000
vn 0.000000 -0.000000 -1.000000
vn 0.669131 -0.743145 0.000000
vn 0.669131 -0.743145 0.000000
vn -0.978148 0.207912 0.000000
vn -0.978148 0.207912 0.000000
vn -0.309017 0.951056 0.000000
vn -0.309017 0.951056 0.000000
vn 0.000000 0.000000 -1.000000
vn 0.000000 0.000000 -1.000000
vn -0.913546 0.406737 0.000000
vn -0.913546 0.406737 0.000000
vn -0.500000 0.866025 0.000000
vn -0.500000 0.866025 0.000000
vn 0.000000 -0.000000 -1.000000
vn 0.000000 -0.000000 -1.000000
vn -0.809017 0.587785 0.000000
vn -0.809017 0.587785 0.000000
vn -0.669131 0.743145 0.000000
vn -0.669131 0.743145 0.000000
vn 0.000000 0.000000 -1.000000
vn 0.000000 0.000000 -1.000000
vn 0.000000 -0.000000 -1.000000
vn 0.000000 -0.000000 -1.000000
vn 0.000000 0.000000 -1.000000
vn 0.000000 0.000000 -1.000000
vn 0.000000 -0.000000 -1.000000
vn 0.000000 -0.000000 -1.000000
vn 0.000000 -0.000000 -1.000000
vn 0.000000 -0.000000 -1.000000
vn 0.000000 -0.000000 -1.000000
vn 0.000000 -0.000000 -1.000000
vn 0.000000 -0.000000 -1.000000
vn 0.000000 -0.000000 -1.000000
vn 0.000000 -0.000000 -1.000000
vn 0.000000 -0.000000 -1.000000
vn 0.000000 -0.000000 -1.000000
vn 0.000000 -0.000000 -1.000000
vn 0.000000 -0.000000 -1.000000
vn 0.000000 -0.000000 -1.000000
vn 0.000000 -0.000000 -1.000000
vn 0.000000 -0.000000 -1.000000
s 1
g polySurface1
usemtl phong1SG
f 1/1/1 2/2/2 3/3/3 4/4/4
s 2
f 5/5/5 6/6/6 7/7/7 8/8/8
s 3
f 9/9/9 10/10/10 11/11/11 12/12/12
s 4
f 13/13/13 14/14/14 15/15/15 16/16/16
s 2
f 17/17/17 18/18/18 19/19/19 20/20/20
s 1
f 21/21/21 22/22/22 23/23/23 24/24/24
s 2
f 25/25/25 26/26/26 6/6/6 5/5/5
s 3
f 27/27/27 28/28/28 29/29/29 30/30/30
s 1
f 4/4/4 3/3/3 31/31/31 32/32/32
s 4
f 33/33/33 34/34/34 35/35/35 36/36/36
s 2
f 37/37/37 38/38/38 26/26/26 25/25/25
s 3
f 39/39/39 40/40/40 10/10/10 9/9/9
s 2
f 19/19/19 41/41/41 42/42/42 43/43/43 20/20/20
s 1
f 44/44/44 45/45/45 22/22/22 21/21/21
s 2
f 41/41/41 38/38/38 37/37/37 46/46/46 42/42/42
s 4
f 47/47/47 13/13/13 16/16/16 48/48/48
s 3
f 30/30/30 29/29/29 49/49/49 50/50/50
s 1
f 32/32/32 31/31/31 51/51/51 52/52/52
s 3
f 53/53/53 54/54/54 40/40/40 39/39/39
s 4
f 34/34/34 55/55/55 56/56/56 35/35/35
s 1
f 57/57/57 58/58/58 45/45/45 44/44/44
s 3
f 50/50/50 49/49/49 59/59/59 60/60/60
s 4
f 61/61/61 47/47/47 48/48/48 62/62/62
s 1
f 52/52/52 51/51/51 63/63/63 64/64/64
s 3
f 65/65/65 66/66/66 54/67/54 53/68/53
s 4
f 55/55/55 67/69/67 68/70/68 56/56/56
s 3
f 60/60/60 59/59/59 69/71/69 8/72/70
s 1
f 11/73/71 15/74/72 58/58/58 57/57/57
s 3
f 17/75/73 70/76/74 66/66/66 65/65/65
s 4
f 71/77/75 61/78/61 62/79/62 72/80/76
s 3
f 8/72/70 69/71/69 73/81/77 5/82/78
s 1
f 64/64/64 63/63/63 36/83/79 28/84/80
s 3
f 20/85/81 74/86/82 70/76/74 17/75/73
s 4
f 67/69/67 7/87/83 75/88/84 68/70/68
s 3
f 5/82/78 73/81/77 76/89/85 25/90/86
f 43/91/87 77/92/88 74/86/82 20/85/81
s 1
f 10/93/89 16/94/90 15/74/72 11/73/71
s 4
f 18/95/91 71/77/75 72/80/76 78/96/92
f 7/87/83 6/97/93 79/98/94 75/88/84
s 1
f 28/84/80 36/83/79 35/99/95 29/100/96
s 4
f 19/101/97 18/95/91 78/96/92 80/102/98
f 6/97/93 26/103/99 81/104/100 79/98/94
s 1
f 40/105/101 48/106/102 16/94/90 10/93/89
s 4
f 41/107/103 19/101/97 80/102/98 82/108/104
f 26/103/99 38/109/105 83/110/106 81/104/100
f 38/109/105 41/107/103 82/108/104 83/110/106
s 1
f 29/100/96 35/99/95 56/111/107 49/112/108
f 54/113/109 62/114/110 48/106/102 40/105/101
f 49/112/108 56/111/107 68/115/111 59/116/112
f 66/117/113 72/118/114 62/114/110 54/113/109
f 59/116/112 68/115/111 75/119/115 69/120/116
f 70/121/117 78/122/118 72/118/114 66/117/113
f 69/120/116 75/119/115 79/123/119 73/124/120
f 74/125/121 80/126/122 78/122/118 70/121/117
f 73/124/120 79/123/119 81/127/123 76/128/124
f 76/128/124 81/127/123 83/129/125 84/130/126
s 3
f 25/90/86 76/89/85 84/131/127 85/132/128 46/133/129 37/134/130
f 46/133/129 85/132/128 86/135/131 77/92/88 43/91/87 42/136/132
s 1
f 82/137/133 80/126/122 74/125/121 77/138/134 86/139/135
f 83/129/125 82/137/133 86/139/135 85/140/136 84/130/126
s 2
f 65/141/137 71/142/138 18/18/18 17/17/17
s 1
f 24/24/24 23/23/23 87/143/139 88/144/140
s 3
f 89/145/141 64/146/142 28/28/28 27/27/27
s 4
f 90/147/143 33/33/33 36/36/36 63/148/144
s 1
f 91/149/145 92/150/146 2/2/2 1/1/1
s 2
f 8/8/8 7/7/7 67/151/147 60/152/148
s 1
f 88/144/140 87/143/139 93/153/149 94/154/150
s 3
f 12/12/12 11/11/11 57/155/151 95/156/152
s 1
f 96/157/153 97/158/154 92/150/146 91/149/145
s 2
f 53/159/155 61/160/156 71/142/138 65/141/137
s 4
f 14/14/14 98/161/157 58/162/158 15/15/15
s 1
f 94/154/150 93/153/149 99/163/159 100/164/160
f 100/164/160 99/163/159 97/158/154 96/157/153
s 3
f 101/165/161 52/166/162 64/146/142 89/145/141
s 2
f 60/152/148 67/151/147 55/167/163 50/168/164
s 4
f 102/169/165 90/147/143 63/148/144 51/170/166
s 3
f 95/156/152 57/155/151 44/171/167 103/172/168
s 2
f 39/173/169 47/174/170 61/160/156 53/159/155
s 3
f 104/175/171 32/176/172 52/166/162 101/165/161
s 4
f 98/161/157 105/177/173 45/178/174 58/162/158
s 2
f 50/168/164 55/167/163 34/179/175 30/180/176
s 3
f 103/172/168 44/171/167 21/181/177 106/182/178
s 4
f 107/183/179 102/169/165 51/170/166 31/184/180
s 2
f 9/185/181 13/186/182 47/174/170 39/173/169
s 3
f 108/187/183 4/188/184 32/176/172 104/175/171
s 4
f 105/177/173 109/189/185 22/190/186 45/178/174
s 3
f 106/182/178 21/181/177 24/191/187 110/192/188
s 2
f 30/180/176 34/179/175 33/193/189 27/194/190
s 3
f 111/195/191 1/196/192 4/188/184 108/187/183
s 4
f 112/197/193 107/183/179 31/184/180 3/198/194
s 3
f 110/192/188 24/191/187 88/199/195 113/200/196
s 2
f 12/201/197 14/202/198 13/186/182 9/185/181
s 3
f 114/203/199 91/204/200 1/196/192 111/195/191
s 4
f 109/189/185 115/205/201 23/206/202 22/190/186
s 3
f 113/200/196 88/199/195 94/207/203 116/208/204
f 117/209/205 96/210/206 91/204/200 114/203/199
s 2
f 27/194/190 33/193/189 90/211/207 89/212/208
s 3
f 116/208/204 94/207/203 100/213/209 118/214/210
s 4
f 119/215/211 112/197/193 3/198/194 2/216/212
s 3
f 118/214/210 100/213/209 96/210/206 117/209/205
s 4
f 115/205/201 120/217/213 87/218/214 23/206/202
s 2
f 95/219/215 98/220/216 14/202/198 12/201/197
s 4
f 121/221/217 119/215/211 2/216/212 92/222/218
f 120/217/213 122/223/219 93/224/220 87/218/214
s 2
f 89/212/208 90/211/207 102/225/221 101/226/222
s 4
f 123/227/223 121/221/217 92/222/218 97/228/224
f 122/223/219 124/229/225 99/230/226 93/224/220
f 124/229/225 123/227/223 97/228/224 99/230/226
s 2
f 103/231/227 105/232/228 98/220/216 95/219/215
f 101/226/222 102/225/221 107/233/229 104/234/230
f 106/235/231 109/236/232 105/232/228 103/231/227
f 104/234/230 107/233/229 112/237/233 108/238/234
f 110/239/235 115/240/236 109/236/232 106/235/231
f 108/238/234 112/237/233 119/241/237 111/242/238
f 113/243/239 120/244/240 115/240/236 110/239/235
f 111/242/238 119/241/237 121/245/241 114/246/242
f 116/247/243 122/248/244 120/244/240 113/243/239
f 114/246/242 121/245/241 123/249/245 117/250/246
f 118/251/247 124/252/248 122/248/244 116/247/243
f 117/250/246 123/249/245 124/252/248 118/251/247
